<?xml version="1.0" encoding="UTF-8" standalone="no"?>
<!-- Generator: Adobe Illustrator 19.0.0, SVG Export Plug-In . SVG Version: 6.00 Build 0)  -->

<svg
   xmlns:dc="http://purl.org/dc/elements/1.1/"
   xmlns:cc="http://creativecommons.org/ns#"
   xmlns:rdf="http://www.w3.org/1999/02/22-rdf-syntax-ns#"
   xmlns:svg="http://www.w3.org/2000/svg"
   xmlns="http://www.w3.org/2000/svg"
   xmlns:xlink="http://www.w3.org/1999/xlink"
   xmlns:sodipodi="http://sodipodi.sourceforge.net/DTD/sodipodi-0.dtd"
   xmlns:inkscape="http://www.inkscape.org/namespaces/inkscape"
   version="1.2"
   x="0px"
   y="0px"
   viewBox="0 0 1280.2 1066.9"
   xml:space="preserve"
   id="svg41"
   sodipodi:docname="whatsapp-logo.svg"
   inkscape:version="0.92.2 (5c3e80d, 2017-08-06)"><metadata
     id="metadata47"><rdf:RDF><cc:Work
         rdf:about=""><dc:format>image/svg+xml</dc:format><dc:type
           rdf:resource="http://purl.org/dc/dcmitype/StillImage" /><dc:title></dc:title></cc:Work></rdf:RDF></metadata><defs
     id="defs45" /><sodipodi:namedview
     pagecolor="#ffffff"
     bordercolor="#666666"
     borderopacity="1"
     objecttolerance="10"
     gridtolerance="10"
     guidetolerance="10"
     inkscape:pageopacity="0"
     inkscape:pageshadow="2"
     inkscape:window-width="1600"
     inkscape:window-height="837"
     id="namedview43"
     showgrid="false"
     inkscape:zoom="0.44240321"
     inkscape:cx="208.8384"
     inkscape:cy="563.69153"
     inkscape:window-x="-8"
     inkscape:window-y="-8"
     inkscape:window-maximized="1"
     inkscape:current-layer="svg41" /><g
     id="WhatsApp_Logo"
     transform="translate(-300.48623,-254.13463)"><g
       id="shape_4"><image
         sodipodi:absref="C:\Users\suitedoalex\sites\14D73113.png"
         xlink:href="14D73113.png"
         style="opacity:0.06000001"
         id="image4"
         transform="translate(392.9272,292.8789)"
         height="497"
         width="496" /><g
         id="g12"><image
           sodipodi:absref="C:\Users\suitedoalex\sites\14D73111.png"
           xlink:href="14D73111.png"
           style="opacity:0.15"
           id="image6"
           transform="translate(420.9272,319.8789)"
           height="440"
           width="438" /><g
           id="g10"><path
             d="m 430.8,746.3 29.6,-108 c -18.2,-31.6 -27.9,-67.5 -27.8,-104.2 0,-115 93.6,-208.5 208.6,-208.5 55.8,0 108.2,21.7 147.5,61.1 39.4,39.4 61.1,91.8 61,147.5 0,115 -93.6,208.5 -208.6,208.5 0,0 0,0 0,0 H 641 c -34.9,0 -69.2,-8.8 -99.7,-25.4 z m 115.7,-66.8 6.3,3.8 c 26.6,15.8 57.1,24.1 88.2,24.2 h 0.1 c 95.5,0 173.3,-77.7 173.3,-173.3 0,-46.3 -18,-89.8 -50.7,-122.6 -32.7,-32.8 -76.3,-50.8 -122.6,-50.8 -95.6,0 -173.4,77.7 -173.4,173.3 0,32.7 9.1,64.6 26.5,92.2 l 4.1,6.6 -17.5,63.9 z"
             id="path8"
             inkscape:connector-curvature="0"
             style="fill:#ffffff" /></g></g></g><linearGradient
       id="shape_3_1_"
       gradientUnits="userSpaceOnUse"
       x1="640.2439"
       y1="738.97131"
       x2="640.2439"
       y2="332.77731"><stop
         offset="0"
         style="stop-color:#20B038"
         id="stop15" /><stop
         offset="1"
         style="stop-color:#60D66A"
         id="stop17" /></linearGradient><path
       id="shape_3"
       d="m 438.1,739 28.6,-104.3 c -17.6,-30.5 -26.9,-65.2 -26.9,-100.6 0,-111 90.4,-201.3 201.3,-201.3 53.9,0 104.4,21 142.4,59 38,38 58.9,88.6 58.9,142.4 0,111 -90.4,201.3 -201.3,201.3 0,0 0,0 0,0 H 641 c -33.7,0 -66.8,-8.5 -96.2,-24.5 z"
       style="fill:url(#shape_3_1_)"
       inkscape:connector-curvature="0" /><g
       id="shape_2"><image
         sodipodi:absref="C:\Users\suitedoalex\sites\14D73117.png"
         xlink:href="14D73117.png"
         style="opacity:0.03999999"
         id="image21"
         transform="translate(417.9272,313.8789)"
         height="446"
         width="444" /><g
         id="g30"><linearGradient
           id="SVGID_1_"
           gradientUnits="userSpaceOnUse"
           x1="640.24518"
           y1="746.25159"
           x2="640.24518"
           y2="325.49149"><stop
             offset="0"
             style="stop-color:#F9F9F9"
             id="stop23" /><stop
             offset="1"
             style="stop-color:#FFFFFF"
             id="stop25" /></linearGradient><path
           d="m 430.8,746.3 29.6,-108 c -18.2,-31.6 -27.9,-67.5 -27.8,-104.2 0,-115 93.6,-208.5 208.6,-208.5 55.8,0 108.2,21.7 147.5,61.1 39.4,39.4 61.1,91.8 61,147.5 0,115 -93.6,208.5 -208.6,208.5 0,0 0,0 0,0 H 641 c -34.9,0 -69.2,-8.8 -99.7,-25.4 z m 115.7,-66.8 6.3,3.8 c 26.6,15.8 57.1,24.1 88.2,24.2 h 0.1 c 95.5,0 173.3,-77.7 173.3,-173.3 0,-46.3 -18,-89.8 -50.7,-122.6 -32.7,-32.8 -76.3,-50.8 -122.6,-50.8 -95.6,0 -173.4,77.7 -173.4,173.3 0,32.7 9.1,64.6 26.5,92.2 l 4.1,6.6 -17.5,63.9 z"
           id="path28"
           style="fill:url(#SVGID_1_)"
           inkscape:connector-curvature="0" /></g></g><g
       id="shape_1"><image
         sodipodi:absref="C:\Users\suitedoalex\sites\14D73110.png"
         xlink:href="14D73110.png"
         style="opacity:0.06000001"
         id="image33"
         transform="translate(522.9271,426.8789)"
         height="222"
         width="237" /><g
         id="g37"><path
           d="m 589,446.8 c -3.9,-8.7 -8,-8.9 -11.7,-9 -3,-0.1 -6.5,-0.1 -10,-0.1 -3.5,0 -9.1,1.3 -13.9,6.5 -4.8,5.2 -18.2,17.8 -18.2,43.5 0,25.6 18.7,50.4 21.3,53.9 2.6,3.5 36.1,57.8 89,78.7 44,17.4 53,13.9 62.5,13 9.6,-0.9 30.8,-12.6 35.2,-24.8 4.3,-12.2 4.3,-22.6 3,-24.8 -1.3,-2.2 -4.8,-3.5 -10,-6.1 -5.2,-2.6 -30.8,-15.2 -35.6,-17 -4.8,-1.8 -8.3,-2.6 -11.7,2.6 -3.5,5.2 -13.5,16.9 -16.5,20.4 -3,3.5 -6.1,3.9 -11.3,1.3 -5.2,-2.6 -22,-8.1 -41.9,-25.9 -15.5,-13.8 -26,-30.9 -29,-36.1 -3,-5.2 -0.3,-8 2.3,-10.6 2.3,-2.3 5.2,-6.1 7.8,-9.1 2.6,-3 3.5,-5.2 5.2,-8.7 1.7,-3.5 0.9,-6.5 -0.4,-9.1 -1.3,-2.6 -11.5,-28.3 -16.1,-38.6 z"
           id="path35"
           inkscape:connector-curvature="0"
           style="fill:#ffffff;fill-rule:evenodd" /></g></g></g><g
     transform="translate(286.83199,-245.73885)"
     id="background_1_" /><g
     transform="translate(286.83199,-245.73885)"
     id="WhatsApp_Logo-7"
     style="fill:#999999"><g
       id="WA_Logo"
       style="fill:#999999"><path
         inkscape:connector-curvature="0"
         d="m 788.6,386.6 c -39.4,-39.4 -91.7,-61.1 -147.5,-61.2 -115,0 -208.5,93.6 -208.6,208.5 0,36.8 9.6,72.6 27.8,104.3 l -29.6,108.1 110.6,-29 c 30.5,16.6 64.8,25.4 99.7,25.4 h 0.1 c 0,0 0,0 0,0 114.9,0 208.5,-93.6 208.6,-208.6 C 849.7,478.4 828,426 788.6,386.6 Z M 641.1,707.5 v 0 c -31.2,0 -61.7,-8.4 -88.3,-24.2 l -6.3,-3.8 -65.6,17.2 17.5,-64 -4.1,-6.6 c -17.4,-27.6 -26.5,-59.5 -26.5,-92.2 0,-95.6 77.8,-173.3 173.4,-173.3 46.3,0 89.8,18.1 122.6,50.8 32.7,32.8 50.7,76.3 50.7,122.6 -0.1,95.7 -77.9,173.5 -173.4,173.5 z m 95.1,-129.9 c -5.2,-2.6 -30.8,-15.2 -35.6,-17 -4.8,-1.7 -8.3,-2.6 -11.7,2.6 -3.5,5.2 -13.5,17 -16.5,20.4 -3,3.5 -6.1,3.9 -11.3,1.3 -5.2,-2.6 -22,-8.1 -41.9,-25.9 -15.5,-13.8 -25.9,-30.9 -29,-36.1 -3,-5.2 -0.3,-8 2.3,-10.6 2.3,-2.3 5.2,-6.1 7.8,-9.1 2.6,-3 3.5,-5.2 5.2,-8.7 1.7,-3.5 0.9,-6.5 -0.4,-9.1 -1.3,-2.6 -11.7,-28.3 -16.1,-38.7 -4.2,-10.2 -8.5,-8.8 -11.7,-8.9 -3,-0.2 -6.5,-0.2 -10,-0.2 -3.5,0 -9.1,1.3 -13.9,6.5 -4.8,5.2 -18.2,17.8 -18.2,43.5 0,25.7 18.7,50.4 21.3,53.9 2.6,3.5 36.7,56.1 89,78.7 12.4,5.4 22.1,8.6 29.7,11 12.5,4 23.8,3.4 32.8,2.1 10,-1.5 30.8,-12.6 35.2,-24.8 4.3,-12.2 4.3,-22.6 3,-24.8 -1.3,-2.2 -4.8,-3.5 -10,-6.1 z"
         id="path4"
         style="fill:#999999;fill-rule:evenodd" /></g></g><g
     transform="translate(-294.9605,256.13709)"
     id="WhatsApp_Logo-7-1"
     style="fill:#25d366"><g
       id="WA_Logo-5"
       style="fill:#25d366"><path
         inkscape:connector-curvature="0"
         d="m 788.6,386.6 c -39.4,-39.4 -91.7,-61.1 -147.5,-61.2 -115,0 -208.5,93.6 -208.6,208.5 0,36.8 9.6,72.6 27.8,104.3 l -29.6,108.1 110.6,-29 c 30.5,16.6 64.8,25.4 99.7,25.4 h 0.1 c 0,0 0,0 0,0 114.9,0 208.5,-93.6 208.6,-208.6 C 849.7,478.4 828,426 788.6,386.6 Z M 641.1,707.5 v 0 c -31.2,0 -61.7,-8.4 -88.3,-24.2 l -6.3,-3.8 -65.6,17.2 17.5,-64 -4.1,-6.6 c -17.4,-27.6 -26.5,-59.5 -26.5,-92.2 0,-95.6 77.8,-173.3 173.4,-173.3 46.3,0 89.8,18.1 122.6,50.8 32.7,32.8 50.7,76.3 50.7,122.6 -0.1,95.7 -77.9,173.5 -173.4,173.5 z m 95.1,-129.9 c -5.2,-2.6 -30.8,-15.2 -35.6,-17 -4.8,-1.7 -8.3,-2.6 -11.7,2.6 -3.5,5.2 -13.5,17 -16.5,20.4 -3,3.5 -6.1,3.9 -11.3,1.3 -5.2,-2.6 -22,-8.1 -41.9,-25.9 -15.5,-13.8 -25.9,-30.9 -29,-36.1 -3,-5.2 -0.3,-8 2.3,-10.6 2.3,-2.3 5.2,-6.1 7.8,-9.1 2.6,-3 3.5,-5.2 5.2,-8.7 1.7,-3.5 0.9,-6.5 -0.4,-9.1 -1.3,-2.6 -11.7,-28.3 -16.1,-38.7 -4.2,-10.2 -8.5,-8.8 -11.7,-8.9 -3,-0.2 -6.5,-0.2 -10,-0.2 -3.5,0 -9.1,1.3 -13.9,6.5 -4.8,5.2 -18.2,17.8 -18.2,43.5 0,25.7 18.7,50.4 21.3,53.9 2.6,3.5 36.7,56.1 89,78.7 12.4,5.4 22.1,8.6 29.7,11 12.5,4 23.8,3.4 32.8,2.1 10,-1.5 30.8,-12.6 35.2,-24.8 4.3,-12.2 4.3,-22.6 3,-24.8 -1.3,-2.2 -4.8,-3.5 -10,-6.1 z"
         id="path4-1"
         style="fill:#25d366;fill-rule:evenodd" /></g></g><text
     xml:space="preserve"
     style="font-style:normal;font-weight:normal;font-size:40px;line-height:1.25;font-family:sans-serif;letter-spacing:0px;word-spacing:0px;fill:#000000;fill-opacity:1;stroke:none"
     x="702.97864"
     y="716.54089"
     id="text889"><tspan
       sodipodi:role="line"
       id="tspan887"
       x="702.97864"
       y="716.54089">logodownload.org</tspan></text>
</svg>